<?xml version="1.0" encoding="utf-8"?>
<!-- Svg Vector Icons : http://www.onlinewebfonts.com/icon -->
<!DOCTYPE svg PUBLIC "-//W3C//DTD SVG 1.1//EN" "http://www.w3.org/Graphics/SVG/1.1/DTD/svg11.dtd">
<svg version="1.1" xmlns="http://www.w3.org/2000/svg" xmlns:xlink="http://www.w3.org/1999/xlink" x="0px" y="0px" viewBox="0 0 1000 1000" enable-background="new 0 0 1000 1000" xml:space="preserve">
<metadata> Svg Vector Icons : http://www.onlinewebfonts.com/icon </metadata>
<g><path d="M990,500c0,270.9-219.1,490-490,490C229.1,990,10,770.9,10,500C10,229.1,229.1,10,500,10C770.9,10,990,229.1,990,500z M307.5,560.2l2.1,2.1l0,0c11.9,10.5,28.7,14.7,44.1,9.1l403.9-147.7c23.1-8.4,34.3-33.6,25.9-56.7c-8.4-23.1-33.6-34.3-56.7-25.9l-143.5,52.5L428.6,265.5l-53.2,53.2l109.9,109.9L329.9,486l-63.7-49l-41.3,41.3l81.2,81.2C306.8,558.8,306.8,559.5,307.5,560.2z M787,640H213v35h574V640z"/></g>
</svg>